<?xml version="1.0" standalone="no"?>
<!DOCTYPE svg PUBLIC "-//W3C//DTD SVG 20010904//EN"
 "http://www.w3.org/TR/2001/REC-SVG-20010904/DTD/svg10.dtd">
<svg version="1.0" xmlns="http://www.w3.org/2000/svg"
 width="1121.000000pt" height="1038.000000pt" viewBox="0 0 1121.000000 1038.000000"
 preserveAspectRatio="xMidYMid meet">

<g transform="translate(0.000000,1038.000000) scale(0.100000,-0.100000)"
fill="#fff" stroke="none">
<path d="M5635 10370 c-3 -5 -34 -10 -68 -10 -79 0 -266 -16 -427 -36 -537
-67 -1080 -234 -1591 -490 -231 -115 -348 -183 -569 -329 -482 -319 -917 -716
-1287 -1178 -217 -270 -414 -567 -534 -802 -183 -363 -278 -668 -455 -1463
-57 -261 -113 -490 -123 -510 -21 -42 -37 -116 -46 -212 -9 -98 -26 -190 -36
-190 -25 0 3 403 52 750 88 629 302 1308 599 1900 72 143 83 160 145 214 l67
59 -5 53 c-5 49 -2 57 52 151 444 769 1212 1472 2136 1955 72 37 126 68 122
68 -19 0 -340 -164 -472 -241 -417 -244 -760 -511 -1115 -868 -271 -272 -505
-558 -672 -822 l-63 -98 -42 -1 c-55 0 -78 -25 -94 -99 -16 -73 -44 -128 -69
-136 -13 -4 -36 -37 -60 -86 -22 -43 -56 -104 -76 -135 -20 -31 -51 -88 -69
-128 -74 -159 -48 -151 39 13 51 94 94 157 103 148 9 -9 -34 -121 -74 -195
-37 -70 -44 -89 -39 -118 6 -30 4 -35 -19 -46 -23 -10 -25 -17 -25 -72 0 -71
-20 -111 -51 -101 -20 7 -25 -5 -9 -21 15 -15 -8 -77 -26 -70 -11 4 -13 -1 -8
-19 5 -19 2 -25 -10 -25 -14 0 -16 -6 -10 -35 5 -31 4 -35 -14 -35 -25 0 -52
-72 -52 -138 0 -24 -24 -130 -52 -235 -41 -147 -57 -191 -71 -195 -14 -3 -15
-7 -6 -18 9 -11 9 -25 -1 -59 -11 -39 -15 -43 -31 -34 -17 8 -19 6 -19 -19 0
-16 9 -37 20 -47 13 -12 17 -23 11 -34 -5 -9 -11 -33 -15 -53 -4 -22 -17 -45
-31 -56 -17 -14 -21 -22 -13 -30 8 -8 6 -28 -5 -73 -8 -34 -13 -67 -11 -74 3
-6 0 -25 -6 -41 -7 -16 -16 -65 -21 -109 -5 -44 -11 -93 -14 -110 -4 -16 -8
-43 -9 -60 -2 -16 -8 -57 -15 -90 -6 -33 -15 -160 -21 -281 -10 -226 -14 -258
-34 -251 -8 3 -11 87 -10 293 0 343 4 445 17 461 5 7 7 22 4 33 -3 12 3 55 13
98 19 80 18 92 -6 92 -10 0 -13 -7 -8 -24 3 -14 -1 -34 -9 -48 -9 -14 -19 -79
-27 -168 -7 -80 -18 -183 -26 -230 -19 -117 -17 -237 6 -424 11 -88 20 -193
20 -233 0 -73 0 -73 -36 -95 l-36 -23 5 -105 c9 -172 40 -302 153 -637 58
-172 116 -361 129 -420 31 -136 52 -360 36 -376 -23 -23 -12 -72 25 -115 48
-56 67 -54 99 8 14 28 31 50 39 50 30 0 68 -46 108 -128 51 -108 75 -142 96
-142 13 0 12 4 -7 19 -16 12 -20 21 -12 25 18 11 13 34 -10 41 -20 7 -23 36
-4 41 6 2 56 -76 111 -174 517 -907 1110 -1585 1771 -2026 57 -37 111 -79 122
-92 10 -13 23 -24 29 -24 5 0 12 -7 16 -15 3 -8 15 -15 26 -15 11 0 23 -7 26
-15 4 -11 13 -13 27 -9 15 5 27 -1 46 -24 19 -22 81 -56 221 -120 194 -89 441
-211 470 -232 11 -8 2 -10 -36 -5 -46 6 -53 4 -68 -16 -11 -17 -13 -26 -4 -36
15 -18 32 -16 53 7 25 28 35 25 35 -9 0 -25 7 -31 50 -50 29 -12 111 -31 188
-42 183 -26 221 -40 291 -105 58 -54 59 -54 123 -54 35 0 69 5 75 11 6 6 26
14 44 18 43 9 62 38 34 53 -11 6 -47 37 -80 69 l-60 58 -63 -6 c-55 -5 -69 -3
-124 25 -35 17 -93 56 -130 87 -36 30 -75 55 -87 55 -11 0 -24 7 -29 17 -5 9
-49 29 -97 45 -166 54 -365 165 -365 204 0 12 7 27 15 34 12 10 27 5 83 -29
74 -44 97 -49 128 -26 31 23 52 18 102 -29 62 -58 104 -67 169 -35 26 13 56
24 65 24 10 1 21 5 25 8 3 4 14 0 24 -9 16 -14 21 -14 60 4 32 15 49 18 62 10
15 -7 23 -5 38 11 30 32 48 26 110 -35 67 -66 68 -66 218 -36 121 25 157 44
183 94 11 21 29 39 43 42 28 7 30 21 14 77 -9 30 -9 42 0 53 9 11 9 20 2 34
-9 17 -6 23 24 41 54 32 42 68 -32 91 -21 7 -42 16 -47 20 -15 14 33 31 68 25
30 -6 34 -4 40 20 4 15 25 49 46 77 22 27 40 55 40 62 0 7 -13 30 -30 52 -35
46 -38 64 -9 64 l21 0 -21 34 c-12 18 -21 36 -21 39 0 3 17 11 38 18 l37 12
-35 14 c-19 8 -67 47 -105 88 -84 87 -104 95 -197 71 -65 -17 -99 -15 -125 6
-10 8 -9 16 2 39 18 33 19 43 4 34 -5 -4 -14 -18 -19 -31 -12 -32 -25 -30 -46
5 -10 17 -21 28 -25 25 -4 -2 -24 6 -43 20 -19 13 -52 27 -73 31 -49 9 -90 31
-103 54 -12 24 2 36 27 23 38 -20 111 -24 234 -12 l128 13 -16 31 c-9 17 -37
56 -62 87 -25 31 -51 65 -57 75 -9 16 -30 19 -180 24 -93 3 -176 9 -184 14 -8
5 -40 28 -70 51 -30 23 -156 111 -280 195 -353 240 -478 345 -660 556 -324
376 -538 747 -695 1204 -35 102 -84 243 -109 314 -125 350 -186 720 -186 1130
0 328 24 515 109 856 160 641 505 1221 1032 1735 427 417 928 721 1419 864
203 58 564 131 775 156 1024 121 2089 -210 2923 -908 57 -47 109 -84 116 -81
7 3 66 -56 138 -138 69 -79 156 -172 194 -207 38 -36 74 -75 81 -87 6 -13 44
-67 84 -121 103 -138 189 -265 189 -278 0 -7 23 -40 50 -74 28 -34 50 -71 50
-81 0 -11 14 -43 31 -72 150 -254 301 -646 389 -1008 219 -906 123 -1939 -241
-2601 -38 -69 -80 -153 -93 -186 -13 -33 -41 -91 -63 -129 -22 -38 -80 -143
-128 -234 -155 -291 -270 -462 -384 -575 -36 -35 -51 -57 -51 -76 0 -21 -19
-45 -87 -108 -49 -44 -117 -104 -153 -134 -72 -59 -150 -149 -150 -174 0 -13
3 -13 28 3 154 100 506 440 676 654 212 266 368 518 537 866 180 371 238 521
300 780 88 368 126 877 100 1340 -14 266 -41 419 -156 884 -52 212 -95 398
-95 412 0 17 -8 31 -21 38 -12 7 -18 18 -15 26 3 8 -9 30 -26 50 -26 29 -30
39 -20 54 6 10 8 28 5 40 -5 20 -4 21 14 12 27 -15 44 -44 78 -131 16 -40 44
-94 62 -119 18 -26 33 -59 33 -73 0 -14 15 -60 34 -101 19 -41 43 -105 52
-144 10 -38 26 -80 36 -94 10 -14 27 -70 38 -123 11 -54 24 -106 29 -115 5 -9
12 -44 16 -77 4 -33 22 -123 41 -200 19 -77 37 -171 41 -210 3 -38 10 -75 15
-82 5 -6 8 -47 6 -90 -1 -43 4 -118 11 -168 9 -63 12 -134 7 -235 -3 -80 -8
-230 -11 -335 l-5 -190 21 65 c14 44 19 81 15 116 -2 27 0 71 5 97 19 104 29
342 19 462 -6 66 -15 179 -20 250 -5 72 -20 203 -34 292 -90 577 -272 1074
-558 1524 -47 74 -94 154 -105 179 -11 25 -59 88 -106 140 -61 68 -98 121
-131 185 -47 93 -71 125 -220 291 -49 54 -103 120 -121 146 -17 26 -60 70 -96
97 -35 26 -126 103 -201 169 -75 66 -163 140 -195 164 -89 69 -255 169 -389
236 -66 33 -150 81 -188 106 -37 26 -95 57 -129 70 -34 13 -109 45 -167 71
-125 57 -223 92 -305 110 -63 15 -186 53 -270 85 -60 23 -344 80 -540 109
-251 36 -390 44 -713 38 -362 -7 -398 -12 -1012 -153 -23 -5 -24 -4 -8 13 9
10 18 27 19 37 5 25 91 77 194 118 67 26 97 32 190 36 61 2 119 9 130 15 28
15 338 22 849 18 414 -3 441 -4 466 -22 14 -11 50 -22 80 -26 30 -3 66 -13 80
-22 19 -13 47 -15 129 -13 99 2 106 1 130 -22 35 -33 72 -46 134 -46 57 -1
119 -19 146 -44 11 -10 36 -16 64 -16 37 0 68 -11 152 -55 57 -30 128 -60 157
-66 47 -10 150 -62 248 -125 19 -12 100 -55 180 -96 456 -233 899 -599 1339
-1108 50 -58 91 -114 91 -124 0 -11 19 -36 41 -57 30 -27 40 -44 36 -58 -3
-13 5 -29 23 -46 16 -15 38 -50 51 -79 25 -58 56 -106 70 -106 5 0 0 16 -11
37 -10 20 -17 40 -14 44 6 11 104 -46 132 -77 12 -14 19 -30 16 -36 -3 -5 9
-26 29 -46 87 -92 224 -315 307 -499 93 -208 152 -400 223 -718 124 -553 158
-1021 116 -1580 -23 -309 -47 -442 -145 -785 -180 -631 -418 -1115 -748 -1520
-80 -99 -291 -315 -376 -386 -38 -31 -82 -78 -99 -103 -42 -66 -186 -201 -314
-296 -111 -82 -126 -105 -40 -61 59 29 116 74 243 190 52 48 124 107 160 130
159 105 564 570 799 916 276 408 456 792 576 1226 18 67 38 130 43 141 6 10
15 53 21 96 12 89 29 127 67 154 24 18 28 30 40 119 18 145 43 426 53 604 7
134 6 160 -8 189 -13 27 -13 35 -3 39 11 3 12 47 6 231 -7 217 -6 225 11 211
27 -22 45 -73 45 -127 0 -27 4 -63 9 -81 8 -26 7 -34 -5 -39 -12 -5 -11 -10 7
-29 12 -13 17 -24 11 -24 -6 0 -9 -6 -6 -14 3 -8 0 -25 -6 -37 -11 -19 -10
-25 5 -35 10 -8 17 -25 17 -41 -3 -62 -8 -89 -20 -111 -12 -20 -11 -26 1 -40
25 -27 32 -88 14 -116 -12 -17 -13 -26 -4 -35 8 -8 6 -20 -7 -47 -12 -26 -14
-40 -7 -47 15 -15 14 -92 -5 -237 -8 -69 -19 -168 -24 -220 -9 -117 -44 -282
-69 -333 -15 -31 -17 -45 -9 -68 8 -24 5 -40 -22 -98 -19 -40 -30 -79 -27 -90
3 -12 -4 -37 -14 -58 -12 -23 -19 -58 -19 -91 0 -68 -82 -280 -204 -529 -255
-519 -575 -963 -1041 -1443 -145 -150 -147 -154 -30 -55 143 121 280 252 391
375 461 509 786 1106 1009 1851 18 60 36 98 61 128 38 43 64 112 64 165 0 18
7 56 16 86 24 85 50 241 70 415 26 225 26 779 1 1015 -34 309 -106 678 -176
900 -26 82 -26 86 4 116 l25 25 -46 122 c-303 802 -725 1484 -1259 2036 -255
264 -482 451 -791 654 -717 471 -1488 738 -2399 832 -82 8 -181 20 -220 25
-95 13 -562 13 -570 0z m-2285 -705 c0 -2 -13 -11 -30 -20 -38 -19 -40 -11 -2
9 31 17 32 18 32 11z m-70 -39 c0 -2 -38 -27 -85 -55 -301 -185 -609 -437
-995 -816 -123 -121 -218 -211 -209 -200 110 144 394 434 566 576 191 160 383
298 582 419 130 78 141 84 141 76z m1360 -221 c0 -12 -258 -155 -560 -310
-369 -190 -465 -244 -618 -349 -57 -39 -113 -78 -125 -86 -12 -8 16 21 62 65
46 43 78 81 71 83 -14 5 -102 -55 -207 -140 -207 -168 -401 -367 -728 -745
-86 -101 -159 -183 -161 -183 -6 0 38 77 91 160 223 346 615 695 1190 1059
119 76 186 112 224 121 32 7 83 33 129 63 74 50 238 122 497 218 145 54 135
51 135 44z m4985 -1555 c107 -124 241 -307 232 -316 -21 -21 -138 113 -261
301 -100 151 -115 176 -99 160 6 -5 63 -71 128 -145z m-7279 -202 c-13 -18
-67 -108 -119 -200 -91 -160 -172 -288 -182 -288 -8 0 120 252 166 327 58 96
132 192 147 193 8 0 4 -12 -12 -32z m-651 -1564 c-35 -175 -67 -328 -69 -339
-4 -17 -12 -20 -56 -17 -48 4 -73 19 -27 18 17 -1 23 5 25 25 2 16 11 29 21
32 14 3 17 11 14 29 -3 15 4 43 16 66 12 23 21 54 21 69 0 15 7 60 15 98 19
89 98 360 102 348 2 -5 -26 -153 -62 -329z m9147 -276 c-14 -14 -38 63 -27 89
5 14 10 8 23 -30 11 -34 12 -51 4 -59z m-10186 -918 c20 -136 25 -205 22 -312
-2 -120 -1 -139 15 -156 12 -13 15 -22 8 -27 -7 -4 -3 -18 13 -38 70 -93 104
-206 135 -443 18 -134 29 -199 47 -269 10 -42 -25 33 -74 155 -64 160 -116
322 -152 474 -43 178 -44 183 -45 401 -1 110 -5 218 -9 239 -4 22 -4 78 0 125
5 47 10 73 12 56 1 -16 14 -109 28 -205z m-239 138 c-3 -8 -6 -5 -6 6 -1 11 2
17 5 13 3 -3 4 -12 1 -19z m8 -504 c25 -120 33 -225 16 -194 -20 34 -75 352
-70 405 1 17 28 -85 54 -211z m624 -1133 c7 -14 26 -39 41 -56 57 -62 80 -106
80 -155 0 -56 15 -73 86 -96 68 -23 75 -31 73 -79 -2 -35 8 -59 68 -161 372
-628 908 -1238 1482 -1683 57 -45 116 -98 131 -119 34 -48 86 -89 212 -172 54
-35 96 -65 94 -68 -6 -6 -246 140 -371 226 -464 318 -897 728 -1224 1162 -159
211 -644 1036 -751 1278 l-20 45 42 -48 c24 -26 49 -60 57 -74z m-109 -245 c0
-12 -5 -7 -19 24 -11 24 -11 24 3 6 9 -11 16 -24 16 -30z m881 -1213 c13 -16
12 -17 -3 -4 -10 7 -18 15 -18 17 0 8 8 3 21 -13z m454 -459 c323 -289 678
-553 1089 -808 77 -47 135 -86 130 -86 -24 0 -343 165 -460 238 -320 199 -670
495 -956 809 -231 253 -264 300 -77 112 96 -96 219 -216 274 -265z"/>
<path d="M3640 8936 c-39 -26 -88 -76 -74 -76 5 1 34 23 64 50 61 55 63 61 10
26z"/>
<path d="M842 7493 c-30 -44 -34 -53 -23 -53 6 0 20 18 31 40 24 46 20 52 -8
13z"/>
<path d="M720 7239 c0 -5 5 -7 10 -4 6 3 10 8 10 11 0 2 -4 4 -10 4 -5 0 -10
-5 -10 -11z"/>
<path d="M631 7014 c0 -11 3 -14 6 -6 3 7 2 16 -1 19 -3 4 -6 -2 -5 -13z"/>
<path d="M535 6729 c-4 -12 -2 -26 4 -32 8 -8 11 -2 11 21 0 37 -6 41 -15 11z"/>
<path d="M518 6630 c-21 -49 -77 -340 -83 -433 -7 -102 11 -73 25 42 6 40 24
122 40 181 23 79 30 123 28 166 -2 33 -6 52 -10 44z"/>
<path d="M10951 6493 c77 -290 85 -309 45 -108 -13 66 -31 134 -40 150 -9 17
-16 40 -16 52 0 27 -10 53 -20 53 -4 0 10 -66 31 -147z"/>
<path d="M11050 6118 c0 -15 5 -30 10 -33 13 -8 13 25 0 45 -8 12 -10 9 -10
-12z"/>
<path d="M11104 5834 c2 -39 8 -79 15 -90 10 -15 11 -7 5 44 -10 99 -25 132
-20 46z"/>
<path d="M11139 5602 c5 -34 6 -35 9 -8 2 16 0 32 -5 37 -5 5 -7 -7 -4 -29z"/>
<path d="M11162 5475 c0 -16 2 -22 5 -12 2 9 2 23 0 30 -3 6 -5 -1 -5 -18z"/>
<path d="M0 4571 c0 -5 13 -12 30 -16 35 -8 60 3 39 16 -19 12 -69 11 -69 0z"/>
<path d="M11183 4360 c0 -41 2 -58 4 -37 2 20 2 54 0 75 -2 20 -4 3 -4 -38z"/>
<path d="M10197 4403 c-4 -7 -27 -158 -27 -180 0 -2 4 -3 8 -3 5 0 19 31 31
69 20 62 21 72 8 96 -8 16 -17 24 -20 18z"/>
<path d="M10148 4153 c-12 -13 -18 -36 -18 -65 0 -29 -13 -80 -35 -137 -22
-58 -35 -106 -34 -133 l2 -43 7 40 c4 22 22 66 38 98 33 62 66 188 60 232 -3
27 -3 27 -20 8z"/>
<path d="M10742 4070 c0 -14 2 -19 5 -12 2 6 2 18 0 25 -3 6 -5 1 -5 -13z"/>
<path d="M10681 3824 c0 -11 3 -14 6 -6 3 7 2 16 -1 19 -3 4 -6 -2 -5 -13z"/>
<path d="M10041 3736 c-7 -8 -11 -23 -8 -33 3 -14 6 -12 16 11 13 33 9 43 -8
22z"/>
<path d="M9940 3494 c-189 -438 -482 -873 -853 -1269 l-122 -130 94 84 c220
200 452 487 634 786 144 238 310 578 305 626 -2 25 -13 8 -58 -97z"/>
<path d="M880 3042 c0 -10 9 -27 20 -37 20 -18 20 -18 9 13 -13 38 -29 51 -29
24z"/>
<path d="M920 2940 c0 -5 5 -10 10 -10 6 0 10 5 10 10 0 6 -4 10 -10 10 -5 0
-10 -4 -10 -10z"/>
<path d="M990 2918 c1 -17 28 -53 35 -46 8 8 -13 58 -25 58 -5 0 -10 -6 -10
-12z"/>
<path d="M950 2896 c0 -2 8 -10 18 -17 15 -13 16 -12 3 4 -13 16 -21 21 -21
13z"/>
<path d="M1001 2823 c0 -4 4 -17 9 -28 8 -19 9 -19 9 2 1 12 -3 25 -9 28 -5 3
-10 3 -9 -2z"/>
<path d="M1050 2813 c0 -21 39 -88 46 -80 6 6 -32 97 -40 97 -3 0 -6 -8 -6
-17z"/>
<path d="M1141 2665 c0 -5 11 -30 24 -55 22 -42 24 -43 25 -17 0 15 -4 27 -10
27 -5 0 -16 12 -24 28 -8 15 -15 23 -15 17z"/>
<path d="M1251 2465 c38 -72 155 -252 169 -260 25 -16 6 30 -28 68 -21 23 -58
77 -82 119 -56 99 -108 163 -59 73z"/>
<path d="M1500 2090 c32 -65 66 -110 82 -110 14 0 -39 90 -79 135 l-35 40 32
-65z"/>
<path d="M8939 2083 c-13 -16 -12 -17 4 -4 16 13 21 21 13 21 -2 0 -10 -8 -17
-17z"/>
<path d="M1500 1995 c7 -9 15 -13 17 -11 7 7 -7 26 -19 26 -6 0 -6 -6 2 -15z"/>
<path d="M1571 1893 c28 -38 75 -85 94 -95 11 -6 -7 17 -40 51 -59 61 -80 77
-54 44z"/>
<path d="M1716 1811 c-9 -15 23 -36 35 -24 8 8 5 14 -9 22 -12 6 -23 7 -26 2z"/>
<path d="M1905 1610 c3 -5 8 -10 11 -10 2 0 4 5 4 10 0 6 -5 10 -11 10 -5 0
-7 -4 -4 -10z"/>
<path d="M1984 1519 c-3 -6 -1 -16 5 -22 8 -8 11 -5 11 11 0 24 -5 28 -16 11z"/>
<path d="M2037 1474 c-3 -4 6 -22 20 -41 16 -21 30 -30 36 -24 6 6 1 20 -14
40 -23 31 -31 36 -42 25z"/>
<path d="M1965 1433 c6 -6 30 -28 55 -49 30 -25 37 -29 20 -10 -14 15 -38 37
-55 49 -16 11 -25 16 -20 10z"/>
<path d="M2170 1331 c0 -16 266 -267 360 -340 115 -89 262 -188 390 -264 98
-57 413 -217 427 -217 4 0 -68 40 -162 88 -315 163 -636 383 -725 496 -19 25
-40 44 -46 41 -18 -6 -52 23 -71 58 -9 19 -18 27 -21 19 -6 -18 -42 15 -42 38
0 21 -73 90 -95 90 -8 0 -15 -4 -15 -9z"/>
<path d="M2119 1282 c40 -47 104 -105 139 -126 28 -16 7 5 -85 90 -82 75 -91
80 -54 36z"/>
<path d="M2485 1090 c3 -5 11 -10 16 -10 6 0 7 5 4 10 -3 6 -11 10 -16 10 -6
0 -7 -4 -4 -10z"/>
<path d="M2446 982 c-4 -7 357 -253 433 -296 40 -22 -18 21 -204 150 -239 167
-222 156 -229 146z"/>
<path d="M4985 870 c3 -5 19 -10 36 -10 16 0 29 5 29 10 0 6 -16 10 -36 10
-21 0 -33 -4 -29 -10z"/>
<path d="M3065 575 c33 -27 82 -37 55 -11 -8 7 -31 18 -50 25 l-35 11 30 -25z"/>
<path d="M3260 479 c36 -24 91 -49 107 -48 10 0 -9 13 -42 29 -61 29 -93 38
-65 19z"/>
<path d="M3410 480 c8 -5 20 -10 25 -10 6 0 3 5 -5 10 -8 5 -19 10 -25 10 -5
0 -3 -5 5 -10z"/>
<path d="M3470 385 c0 -3 27 -18 60 -35 54 -27 150 -51 150 -37 0 14 -72 47
-133 61 -76 18 -77 18 -77 11z"/>
</g>
</svg>
